HIERARCHY
ROOT mixamorig:Hips
{
	OFFSET 0.000000 209.098373 0.000000
	CHANNELS 6 Xposition Yposition Zposition Xrotation Yrotation Zrotation
	JOINT mixamorig:Spine
	{
		OFFSET -0.200200 19.804703 -3.890100
		CHANNELS 6 Xposition Yposition Zposition Xrotation Yrotation Zrotation
		JOINT mixamorig:Spine1
		{
			OFFSET -0.270400 23.500305 -2.360300
			CHANNELS 6 Xposition Yposition Zposition Xrotation Yrotation Zrotation
			JOINT mixamorig:Spine2
			{
				OFFSET -0.109100 27.807587 -1.195400
				CHANNELS 6 Xposition Yposition Zposition Xrotation Yrotation Zrotation
				JOINT mixamorig:Neck
				{
					OFFSET 0.573000 31.061890 3.761700
					CHANNELS 6 Xposition Yposition Zposition Xrotation Yrotation Zrotation
					JOINT mixamorig:Head
					{
						OFFSET 1.041900 22.230988 6.513500
						CHANNELS 6 Xposition Yposition Zposition Xrotation Yrotation Zrotation
						JOINT mixamorig:HeadTop_End
						{
							OFFSET 0.153900 38.312317 10.826400
							CHANNELS 6 Xposition Yposition Zposition Xrotation Yrotation Zrotation
							End Site
							{
								OFFSET 0.000000 29.448334 0.000000
							}
						}
						JOINT mixamorig:RightEye
						{
							OFFSET -6.116900 16.475891 16.457001
							CHANNELS 6 Xposition Yposition Zposition Xrotation Yrotation Zrotation
							End Site
							{
								OFFSET 0.000000 29.448334 0.000000
							}
						}
						JOINT mixamorig:LeftEye
						{
							OFFSET 6.085500 16.736298 16.760401
							CHANNELS 6 Xposition Yposition Zposition Xrotation Yrotation Zrotation
							End Site
							{
								OFFSET 0.000000 29.448334 0.000000
							}
						}
					}
				}
				JOINT mixamorig:LeftShoulder
				{
					OFFSET 12.954100 18.894806 2.678200
					CHANNELS 6 Xposition Yposition Zposition Xrotation Yrotation Zrotation
					JOINT mixamorig:LeftArm
					{
						OFFSET 26.260923 0.774078 -4.054200
						CHANNELS 6 Xposition Yposition Zposition Xrotation Yrotation Zrotation
						JOINT mixamorig:LeftForeArm
						{
							OFFSET 55.127678 0.000000 0.000000
							CHANNELS 6 Xposition Yposition Zposition Xrotation Yrotation Zrotation
							JOINT mixamorig:LeftHand
							{
								OFFSET 52.773346 0.000000 0.000000
								CHANNELS 6 Xposition Yposition Zposition Xrotation Yrotation Zrotation
								JOINT mixamorig:LeftHandMiddle1
								{
									OFFSET 27.744553 0.000000 -0.000001
									CHANNELS 6 Xposition Yposition Zposition Xrotation Yrotation Zrotation
									JOINT mixamorig:LeftHandMiddle2
									{
										OFFSET 6.931656 0.000000 0.000000
										CHANNELS 6 Xposition Yposition Zposition Xrotation Yrotation Zrotation
										JOINT mixamorig:LeftHandMiddle3
										{
											OFFSET 6.823593 0.000000 0.000000
											CHANNELS 6 Xposition Yposition Zposition Xrotation Yrotation Zrotation
											End Site
											{
												OFFSET 7.354706 -0.109253 -0.740184
											}
										}
									}
								}
								JOINT mixamorig:LeftHandThumb1
								{
									OFFSET 11.123123 -3.291504 6.128796
									CHANNELS 6 Xposition Yposition Zposition Xrotation Yrotation Zrotation
									JOINT mixamorig:LeftHandThumb2
									{
										OFFSET 8.694336 -5.019684 5.019678
										CHANNELS 6 Xposition Yposition Zposition Xrotation Yrotation Zrotation
										JOINT mixamorig:LeftHandThumb3
										{
											OFFSET 6.936920 -4.005035 4.005031
											CHANNELS 6 Xposition Yposition Zposition Xrotation Yrotation Zrotation
											End Site
											{
												OFFSET 5.765579 -0.108337 -0.568288
											}
										}
									}
								}
								JOINT mixamorig:LeftHandIndex1
								{
									OFFSET 28.490189 -0.454712 5.152027
									CHANNELS 6 Xposition Yposition Zposition Xrotation Yrotation Zrotation
									JOINT mixamorig:LeftHandIndex2
									{
										OFFSET 7.062866 0.000000 0.000000
										CHANNELS 6 Xposition Yposition Zposition Xrotation Yrotation Zrotation
										JOINT mixamorig:LeftHandIndex3
										{
											OFFSET 6.495270 0.000000 0.000000
											CHANNELS 6 Xposition Yposition Zposition Xrotation Yrotation Zrotation
											End Site
											{
												OFFSET 6.557297 0.042389 -0.687234
											}
										}
									}
								}
								JOINT mixamorig:LeftHandRing1
								{
									OFFSET 25.484116 0.079315 -4.241013
									CHANNELS 6 Xposition Yposition Zposition Xrotation Yrotation Zrotation
									JOINT mixamorig:LeftHandRing2
									{
										OFFSET 6.309830 0.000000 0.000000
										CHANNELS 6 Xposition Yposition Zposition Xrotation Yrotation Zrotation
										JOINT mixamorig:LeftHandRing3
										{
											OFFSET 6.359528 0.000000 0.000000
											CHANNELS 6 Xposition Yposition Zposition Xrotation Yrotation Zrotation
											End Site
											{
												OFFSET 7.026703 0.253662 -0.303905
											}
										}
									}
								}
								JOINT mixamorig:LeftHandPinky1
								{
									OFFSET 21.905838 -0.440979 -8.780931
									CHANNELS 6 Xposition Yposition Zposition Xrotation Yrotation Zrotation
									JOINT mixamorig:LeftHandPinky2
									{
										OFFSET 6.536652 0.000000 0.000000
										CHANNELS 6 Xposition Yposition Zposition Xrotation Yrotation Zrotation
										JOINT mixamorig:LeftHandPinky3
										{
											OFFSET 4.149078 0.000000 0.000000
											CHANNELS 6 Xposition Yposition Zposition Xrotation Yrotation Zrotation
											End Site
											{
												OFFSET 5.537613 0.062164 -0.532511
											}
										}
									}
								}
							}
						}
					}
				}
				JOINT mixamorig:RightShoulder
				{
					OFFSET -12.637299 19.215302 2.180900
					CHANNELS 6 Xposition Yposition Zposition Xrotation Yrotation Zrotation
					JOINT mixamorig:RightArm
					{
						OFFSET -26.335392 0.460938 -5.423000
						CHANNELS 6 Xposition Yposition Zposition Xrotation Yrotation Zrotation
						JOINT mixamorig:RightForeArm
						{
							OFFSET -55.842682 0.000000 0.000000
							CHANNELS 6 Xposition Yposition Zposition Xrotation Yrotation Zrotation
							JOINT mixamorig:RightHand
							{
								OFFSET -50.313637 0.000000 0.000000
								CHANNELS 6 Xposition Yposition Zposition Xrotation Yrotation Zrotation
								JOINT mixamorig:RightHandMiddle1
								{
									OFFSET -26.065582 0.000000 0.000000
									CHANNELS 6 Xposition Yposition Zposition Xrotation Yrotation Zrotation
									JOINT mixamorig:RightHandMiddle2
									{
										OFFSET -6.159927 0.000000 0.000000
										CHANNELS 6 Xposition Yposition Zposition Xrotation Yrotation Zrotation
										JOINT mixamorig:RightHandMiddle3
										{
											OFFSET -7.279129 0.000000 0.000000
											CHANNELS 6 Xposition Yposition Zposition Xrotation Yrotation Zrotation
											End Site
											{
												OFFSET -7.458603 0.045563 -0.133469
											}
										}
									}
								}
								JOINT mixamorig:RightHandThumb1
								{
									OFFSET -9.501938 -3.930054 6.157043
									CHANNELS 6 Xposition Yposition Zposition Xrotation Yrotation Zrotation
									JOINT mixamorig:RightHandThumb2
									{
										OFFSET -8.016403 -4.628265 4.628269
										CHANNELS 6 Xposition Yposition Zposition Xrotation Yrotation Zrotation
										JOINT mixamorig:RightHandThumb3
										{
											OFFSET -6.641968 -3.834747 3.834738
											CHANNELS 6 Xposition Yposition Zposition Xrotation Yrotation Zrotation
											End Site
											{
												OFFSET -6.127075 0.113342 -0.362732
											}
										}
									}
								}
								JOINT mixamorig:RightHandIndex1
								{
									OFFSET -26.603027 -0.546387 5.106654
									CHANNELS 6 Xposition Yposition Zposition Xrotation Yrotation Zrotation
									JOINT mixamorig:RightHandIndex2
									{
										OFFSET -7.092133 0.000000 0.000000
										CHANNELS 6 Xposition Yposition Zposition Xrotation Yrotation Zrotation
										JOINT mixamorig:RightHandIndex3
										{
											OFFSET -7.414383 0.000000 0.000000
											CHANNELS 6 Xposition Yposition Zposition Xrotation Yrotation Zrotation
											End Site
											{
												OFFSET -5.518188 0.168182 -0.137220
											}
										}
									}
								}
								JOINT mixamorig:RightHandRing1
								{
									OFFSET -24.087204 0.001373 -3.983909
									CHANNELS 6 Xposition Yposition Zposition Xrotation Yrotation Zrotation
									JOINT mixamorig:RightHandRing2
									{
										OFFSET -6.857483 0.000000 0.000000
										CHANNELS 6 Xposition Yposition Zposition Xrotation Yrotation Zrotation
										JOINT mixamorig:RightHandRing3
										{
											OFFSET -6.835510 0.000000 0.000000
											CHANNELS 6 Xposition Yposition Zposition Xrotation Yrotation Zrotation
											End Site
											{
												OFFSET -6.014297 0.133209 0.130255
											}
										}
									}
								}
								JOINT mixamorig:RightHandPinky1
								{
									OFFSET -20.989380 -0.497772 -8.541121
									CHANNELS 6 Xposition Yposition Zposition Xrotation Yrotation Zrotation
									JOINT mixamorig:RightHandPinky2
									{
										OFFSET -5.939575 0.000000 0.000000
										CHANNELS 6 Xposition Yposition Zposition Xrotation Yrotation Zrotation
										JOINT mixamorig:RightHandPinky3
										{
											OFFSET -3.764755 0.000000 0.000000
											CHANNELS 6 Xposition Yposition Zposition Xrotation Yrotation Zrotation
											End Site
											{
												OFFSET -6.369995 -0.010254 -0.078470
											}
										}
									}
								}
							}
						}
					}
				}
			}
		}
	}
	JOINT mixamorig:LeftUpLeg
	{
		OFFSET 18.528200 -13.833405 2.662400
		CHANNELS 6 Xposition Yposition Zposition Xrotation Yrotation Zrotation
		JOINT mixamorig:LeftLeg
		{
			OFFSET -0.428627 -85.183052 -3.238300
			CHANNELS 6 Xposition Yposition Zposition Xrotation Yrotation Zrotation
			JOINT mixamorig:LeftFoot
			{
				OFFSET 0.428627 -85.416382 -5.126600
				CHANNELS 6 Xposition Yposition Zposition Xrotation Yrotation Zrotation
				JOINT mixamorig:LeftToeBase
				{
					OFFSET 2.692499 -21.394899 24.290701
					CHANNELS 6 Xposition Yposition Zposition Xrotation Yrotation Zrotation
					End Site
					{
						OFFSET 0.000000 0.000000 19.064795
					}
				}
			}
		}
	}
	JOINT mixamorig:RightUpLeg
	{
		OFFSET -18.436300 -14.416702 0.160500
		CHANNELS 6 Xposition Yposition Zposition Xrotation Yrotation Zrotation
		JOINT mixamorig:RightLeg
		{
			OFFSET 0.571878 -84.751007 -3.366100
			CHANNELS 6 Xposition Yposition Zposition Xrotation Yrotation Zrotation
			JOINT mixamorig:RightFoot
			{
				OFFSET -0.571878 -85.244911 -5.426400
				CHANNELS 6 Xposition Yposition Zposition Xrotation Yrotation Zrotation
				JOINT mixamorig:RightToeBase
				{
					OFFSET -3.153700 -21.491106 24.818199
					CHANNELS 6 Xposition Yposition Zposition Xrotation Yrotation Zrotation
					End Site
					{
						OFFSET 0.000000 0.000000 19.702320
					}
				}
			}
		}
	}
}
MOTION
Frames: 4
Frame Time: 0.033333
6.164300 287.380463 -11.999557 11.568845 -18.783702 1.836575 -0.200200 19.804668 -3.890098 12.414806 1.923711 0.737572 -0.270395 23.500263 -2.360297 13.016685 1.357503 1.289793 -0.109101 27.807581 -1.195374 1.210616 -0.579211 1.514110 0.573000 31.061958 3.761692 -6.067315 2.749849 7.574660 1.041906 22.231026 6.513484 -8.159099 8.272097 -8.219461 0.153892 38.312286 10.826403 -0.000001 0.000001 -0.000000 -6.116907 16.475861 16.456993 -0.000001 0.000001 -0.000000 6.085491 16.736237 16.760397 -0.000001 0.000001 -0.000000 12.954102 18.894867 2.678187 2.926123 -20.700437 0.636028 26.260899 0.774088 -4.054178 -24.328777 21.882852 -23.706347 55.127689 0.000041 0.000009 -46.264389 -69.286730 -48.450189 52.773327 0.000086 0.000022 5.765663 5.844336 27.217993 27.744555 0.000012 0.000027 -0.405406 -3.232177 -40.834890 6.931668 0.000049 0.000001 -0.871412 -2.091663 -45.643852 6.823522 0.000011 0.000013 -0.892314 -2.143925 -46.655697 11.123112 -3.291436 6.128815 7.718564 -12.473767 17.780239 8.694320 -5.019723 5.019681 7.139168 22.601120 -10.373165 6.936923 -4.004966 4.005047 8.112060 14.805289 -1.007980 28.490164 -0.454687 5.152045 -1.122239 -0.194736 -26.739236 7.062855 -0.000046 -0.000016 -0.341056 -1.631709 -37.866681 6.495250 0.000047 0.000015 -0.318698 -1.271723 -28.485657 25.484098 0.079352 -4.240981 -6.380168 3.247041 -49.936131 6.309787 0.000021 0.000006 -1.275046 -2.484614 -54.589355 6.359506 0.000002 -0.000010 -1.073238 -2.476534 -51.529187 21.905851 -0.440969 -8.780914 -7.231986 3.680755 -57.089293 6.536640 -0.000049 -0.000018 -1.063037 -2.421224 -51.119195 4.149092 -0.000006 -0.000004 -1.374657 -2.164549 -50.223129 -12.637300 19.215351 2.180895 7.944124 20.662159 -5.980045 -26.335407 0.461013 -5.423002 -38.128226 7.327862 22.546427 -55.842670 0.000050 0.000010 72.102728 65.928524 -45.210094 -50.313648 0.000007 -0.000010 -21.636892 -19.292284 -15.346673 -26.065582 -0.000032 0.000002 0.075199 3.464676 12.396262 -6.159899 0.000019 -0.000017 -0.066980 0.658267 12.989039 -7.279070 0.000054 0.000009 -0.055503 0.712667 14.000070 -9.501920 -3.930074 6.157037 5.731079 17.868291 -18.183410 -8.016421 -4.628345 4.628246 3.686701 -18.483786 9.357517 -6.641985 -3.834727 3.834728 -0.139620 -0.145805 0.772518 -26.603024 -0.546364 5.106662 0.055119 7.408963 2.909833 -7.092122 0.000001 0.000006 0.155328 0.579247 12.652300 -7.414413 -0.000036 0.000006 -0.000258 0.152313 3.277017 -24.087187 0.001332 -3.983930 -0.154058 -0.650154 17.661297 -6.857453 0.000037 -0.000000 -0.112566 0.846541 16.147409 -6.835539 0.000079 -0.000006 0.039298 0.717332 13.092364 -20.989346 -0.497777 -8.541134 4.008257 -8.959824 21.504878 -5.939531 -0.000000 0.000006 -0.591043 0.603802 13.902842 -3.764743 -0.000027 -0.000008 -1.049072 0.533580 13.001076 18.528204 -13.833416 2.662421 -85.497200 10.203110 26.384724 -0.428620 -85.183098 -3.238333 109.037652 -18.922971 -3.845078 0.428631 -85.416382 -5.126615 -3.570190 3.139410 -7.541162 2.692509 -21.394913 24.290709 9.548204 1.271665 -4.288435 -18.436296 -14.416718 0.160471 -93.224671 -12.755058 -23.288450 0.571876 -84.751022 -3.366117 118.920246 14.237849 0.746087 -0.571874 -85.244911 -5.426407 -15.458967 1.417111 1.835919 -3.153702 -21.491104 24.818203 11.510081 -2.191673 9.371191 
6.008341 285.990082 -9.372879 14.287532 -19.542636 3.494895 -0.200200 19.804665 -3.890095 11.467344 2.143178 0.598613 -0.270398 23.500317 -2.360305 11.117019 1.712875 0.974545 -0.109096 27.807577 -1.195437 -0.699078 -0.166733 1.278536 0.573005 31.061886 3.761714 -6.668854 1.616161 9.508924 1.041898 22.230993 6.513518 -6.531494 8.192374 -9.559981 0.153897 38.312317 10.826413 -0.000001 0.000000 -0.000000 -6.116902 16.475861 16.457020 -0.000001 0.000000 -0.000000 6.085498 16.736298 16.760418 -0.000001 0.000000 -0.000000 12.954110 18.894791 2.678186 2.217437 -20.649163 0.033767 26.260910 0.774063 -4.054208 -25.885287 23.681442 -21.546125 55.127697 -0.000067 0.000015 -32.453395 -74.361410 -39.076646 52.773350 0.000039 0.000001 7.845849 -0.343410 24.908660 27.744543 0.000004 0.000015 -0.421563 -3.287987 -38.611691 6.931668 -0.000003 -0.000014 -0.774302 -1.992050 -42.916274 6.823637 0.000013 -0.000001 -0.792574 -2.045204 -43.928037 11.123100 -3.291506 6.128789 7.464633 -13.286759 17.789129 8.694336 -5.019732 5.019678 6.801618 22.200201 -10.248006 6.936880 -4.005107 4.005021 7.432556 13.522883 -0.788941 28.490162 -0.454704 5.152028 -1.354387 -0.839986 -24.855608 7.062854 0.000045 0.000010 -0.280991 -1.551377 -35.709513 6.495301 0.000028 0.000010 -0.272526 -1.182681 -26.329167 25.484125 0.079271 -4.241014 -6.098807 2.991348 -47.390752 6.309845 -0.000045 -0.000021 -1.139362 -2.382375 -51.394588 6.359478 -0.000055 0.000010 -0.938402 -2.363235 -48.334773 21.905884 -0.441000 -8.780941 -5.992726 3.811177 -54.077473 6.536605 -0.000038 -0.000010 -0.984482 -2.259113 -48.070694 4.149071 -0.000010 0.000006 -1.312699 -2.013717 -47.174624 -12.637291 19.215321 2.180901 6.876452 20.425575 -4.426678 -26.335407 0.461007 -5.423009 -34.227997 8.186775 19.903979 -55.842674 -0.000034 0.000012 79.082232 67.179876 -50.711938 -50.313641 -0.000018 0.000005 -25.213780 -17.031084 -18.193411 -26.065615 -0.000040 -0.000010 0.036271 3.921595 12.382123 -6.159912 0.000018 0.000007 -0.052810 0.593280 11.686222 -7.279082 0.000010 0.000021 -0.040050 0.647448 12.697206 -9.501954 -3.930123 6.157039 5.004914 20.847206 -18.031271 -8.016399 -4.628302 4.628266 3.190201 -17.872484 9.232082 -6.641971 -3.834700 3.834743 -0.701736 0.856801 0.844127 -26.603037 -0.546412 5.106652 -0.026277 8.326525 2.624298 -7.092159 -0.000029 -0.000002 0.168767 0.515756 11.256636 -7.414397 0.000050 -0.000003 0.002641 0.087440 1.881405 -24.087164 0.001319 -3.983910 -0.460000 -1.402494 17.550060 -6.857471 -0.000005 -0.000010 -0.092673 0.774351 14.740977 -6.835533 0.000022 -0.000003 0.055938 0.641583 11.686970 -20.989370 -0.497810 -8.541125 4.639932 -11.899214 20.789566 -5.939609 -0.000064 0.000022 -0.761344 0.518395 12.866423 -3.764680 -0.000060 0.000011 -1.222080 0.457212 11.964701 18.528206 -13.833450 2.662418 -78.629677 10.589302 23.873056 -0.428624 -85.183083 -3.238243 100.529101 -13.138926 -4.753360 0.428633 -85.416389 -5.126597 -2.027555 4.079033 -7.886167 2.692500 -21.394876 24.290716 9.252881 1.157322 -4.070747 -18.436285 -14.416746 0.160483 -87.523355 -11.988027 -22.551483 0.571882 -84.751022 -3.366098 110.556399 15.300843 1.314825 -0.571877 -85.244919 -5.426413 -15.889749 1.915296 3.189027 -3.153694 -21.491081 24.818188 10.008370 -2.059182 9.353411 
5.762821 283.445862 -6.084217 16.177551 -20.005155 4.863810 -0.200202 19.804724 -3.890098 10.664271 2.291414 0.385320 -0.270398 23.500340 -2.360320 9.504972 1.938839 0.524850 -0.109097 27.807550 -1.195432 -2.325501 0.146674 0.885031 0.572992 31.061865 3.761687 -7.413717 0.330596 11.741655 1.041894 22.230970 6.513530 -4.820077 8.291085 -11.707983 0.153901 38.312317 10.826410 0.000001 0.000000 0.000000 -6.116899 16.475891 16.457005 0.000001 0.000000 0.000000 6.085501 16.736298 16.760391 0.000001 0.000000 0.000000 12.954089 18.894728 2.678197 1.655765 -20.496590 -0.111166 26.260904 0.774048 -4.054189 -28.039332 25.577569 -17.825395 55.127686 0.000012 0.000001 -19.925670 -79.555926 -31.746019 52.773308 0.000070 0.000011 8.944232 -4.772900 26.310022 27.744549 0.000044 0.000006 -0.431718 -3.380937 -35.334952 6.931670 -0.000055 -0.000014 -0.640110 -1.837173 -38.897313 6.823570 -0.000018 0.000000 -0.654469 -1.891368 -39.908877 11.123116 -3.291435 6.128801 7.091319 -14.486196 17.803172 8.694313 -5.019703 5.019674 6.305162 21.608413 -10.072939 6.936903 -4.005037 4.005033 6.425805 11.629018 -0.531234 28.490204 -0.454672 5.152035 -1.612289 -1.818751 -22.081356 7.062876 -0.000062 -0.000011 -0.198054 -1.428988 -32.530798 6.495300 0.000060 -0.000001 -0.210649 -1.048406 -23.151418 25.484114 0.079399 -4.241006 -5.650465 2.663454 -43.639547 6.309812 -0.000025 0.000001 -0.950237 -2.218392 -46.687297 6.359545 -0.000025 0.000003 -0.751808 -2.183049 -43.628195 21.905823 -0.440926 -8.780924 -4.218788 4.248807 -49.661144 6.536639 -0.000076 -0.000003 -0.890584 -2.018918 -43.578963 4.149096 -0.000005 0.000002 -1.242184 -1.791715 -42.682658 -12.637306 19.215277 2.180901 5.935565 19.336168 -2.718849 -26.335398 0.461003 -5.423025 -29.818711 10.177956 18.330515 -55.842667 0.000061 0.000020 76.328129 67.888051 -51.251369 -50.313641 0.000022 0.000015 -25.949077 -13.631327 -20.252371 -26.065571 -0.000050 -0.000011 0.029219 4.203050 12.376155 -6.159912 -0.000005 -0.000008 -0.044895 0.553685 10.894797 -7.279135 -0.000041 -0.000029 -0.031388 0.607606 11.905789 -9.501943 -3.930136 6.157036 4.564715 22.662907 -17.950743 -8.016390 -4.628254 4.628260 2.888117 -17.501395 9.161406 -6.641963 -3.834758 3.834737 -1.046777 1.464419 0.898303 -26.603033 -0.546332 5.106648 -0.118809 8.882419 2.459005 -7.092117 -0.000015 0.000012 0.176158 0.477018 10.408797 -7.414402 0.000014 0.000002 0.003674 0.047951 1.033616 -24.087168 0.001356 -3.983915 -0.856922 -1.924927 17.470811 -6.857427 0.000016 0.000016 -0.081460 0.730351 13.886696 -6.835557 0.000011 0.000013 0.065102 0.595356 10.833253 -20.989378 -0.497842 -8.541154 4.755887 -13.777432 20.306359 -5.939551 -0.000065 -0.000031 -0.865880 0.469687 12.236689 -3.764752 -0.000057 -0.000002 -1.328156 0.413971 11.334944 18.528206 -13.833391 2.662404 -71.144043 11.036167 20.682581 -0.428626 -85.183083 -3.238250 90.864725 -8.556193 -5.416617 0.428632 -85.416359 -5.126588 1.069076 4.848122 -7.320170 2.692507 -21.394901 24.290716 7.099143 1.033691 -4.232870 -18.436291 -14.416711 0.160486 -80.329240 -11.904697 -22.673364 0.571884 -84.750984 -3.366069 100.312536 16.067257 2.019561 -0.571883 -85.244896 -5.426412 -15.752356 2.887140 3.634222 -3.153705 -21.491114 24.818197 7.455796 -2.310953 9.504031 
5.210960 279.402039 -2.456936 17.066402 -20.457065 5.884142 -0.200198 19.804699 -3.890106 10.120142 2.370711 0.191003 -0.270399 23.500299 -2.360316 8.412845 2.043987 0.111862 -0.109100 27.807602 -1.195399 -3.430397 0.334400 0.502702 0.573001 31.061888 3.761697 -7.801292 -0.181042 12.398550 1.041919 22.231043 6.513481 -3.380327 8.178539 -12.889901 0.153906 38.312286 10.826401 0.000000 0.000000 -0.000000 -6.116897 16.475891 16.456999 0.000000 0.000000 -0.000000 6.085499 16.736267 16.760403 0.000000 0.000000 -0.000000 12.954102 18.894754 2.678211 1.061645 -19.088465 -0.097254 26.260910 0.774084 -4.054189 -26.956757 24.928476 -15.168395 55.127674 0.000006 -0.000001 -30.540221 -83.086205 -43.375683 52.773308 0.000043 0.000006 9.408853 -6.150217 28.565058 27.744520 0.000066 0.000000 -0.420460 -3.508725 -31.355421 6.931656 -0.000040 -0.000005 -0.492267 -1.637002 -34.018085 6.823599 0.000013 -0.000017 -0.501850 -1.692164 -35.029476 11.123091 -3.291438 6.128803 6.639390 -15.944621 17.821903 8.694330 -5.019692 5.019691 5.703644 20.888489 -9.875262 6.936914 -4.005034 4.005033 5.190008 9.326215 -0.322281 28.490143 -0.454662 5.152046 -1.787415 -3.041778 -18.711798 7.062853 0.000041 -0.000010 -0.106715 -1.274447 -28.671410 6.495286 0.000019 0.000001 -0.145641 -0.881030 -19.293099 25.484093 0.079367 -4.241007 -5.058746 2.349255 -39.084566 6.309775 -0.000032 0.000017 -0.739763 -1.999296 -40.972884 6.359500 0.000003 -0.000023 -0.546037 -1.944636 -37.914694 21.905849 -0.440897 -8.780926 -2.190316 5.160473 -44.349217 6.536611 -0.000096 -0.000019 -0.810119 -1.727377 -38.125699 4.149064 -0.000007 0.000017 -1.187878 -1.524840 -37.228889 -12.637299 19.215332 2.180901 5.177494 17.910646 -1.270340 -26.335402 0.460904 -5.423042 -25.649368 12.327239 18.188877 -55.842632 0.000026 0.000020 73.502712 68.606013 -51.714289 -50.313675 0.000010 0.000001 -23.438084 -10.922453 -18.921695 -26.065588 -0.000063 -0.000008 0.049530 4.241356 12.619561 -6.159921 -0.000071 -0.000004 -0.046620 0.562429 11.069615 -7.279098 -0.000001 0.000010 -0.033259 0.616387 12.080603 -9.501933 -3.930155 6.157025 4.530169 22.835491 -17.938382 -8.016412 -4.628255 4.628267 2.880055 -17.491669 9.160978 -6.641964 -3.834744 3.834744 -1.013907 1.417917 0.881908 -26.603046 -0.546391 5.106647 -0.260623 8.888531 2.653896 -7.092131 -0.000001 -0.000010 0.175238 0.481862 10.515552 -7.414399 0.000039 -0.000001 0.003570 0.052908 1.140390 -24.087172 0.001266 -3.983922 -1.354497 -2.107338 17.711541 -6.857440 0.000024 0.000011 -0.084231 0.741336 14.101592 -6.835520 0.000062 -0.000002 0.062873 0.607028 11.048241 -20.989376 -0.497805 -8.541129 4.299579 -14.048640 20.420502 -5.939552 -0.000052 0.000001 -0.875972 0.476555 12.468567 -3.764701 -0.000030 -0.000008 -1.337854 0.419619 11.566873 18.528210 -13.833408 2.662399 -63.326857 11.462121 17.514270 -0.428621 -85.183067 -3.238289 80.571404 -5.156484 -5.703645 0.428633 -85.416374 -5.126598 4.156990 5.297577 -3.558296 2.692503 -21.394901 24.290705 6.239922 1.375955 -4.625190 -18.436291 -14.416716 0.160475 -71.626418 -11.604864 -21.837966 0.571873 -84.751045 -3.366110 88.946234 14.106257 2.618980 -0.571877 -85.244926 -5.426384 -13.607879 4.188137 3.295080 -3.153700 -21.491093 24.818192 7.401599 -0.877108 8.634342 
